<?xml version="1.0" encoding="UTF-8"?> <!-- Generator: Adobe Illustrator 19.0.0, SVG Export Plug-In . SVG Version: 6.00 Build 0) --> <svg xmlns="http://www.w3.org/2000/svg" xmlns:xlink="http://www.w3.org/1999/xlink" version="1.1" id="Layer_1" x="0px" y="0px" viewBox="0 0 216.7 185.7" style="enable-background:new 0 0 216.7 185.7;" xml:space="preserve"> <style type="text/css"> .st0{fill:#E0EBF6;} .st1{fill:#005480;} .st2{fill:#FFFFFF;} </style> <g id="XMLID_769_"> <g id="XMLID_1273_"> <path id="XMLID_1338_" class="st0" d="M191.6,44.7L195,48c2.8-2.9,4.9-5.7,6.1-8.1l-4.2-2.2C195.9,39.7,194.1,42.1,191.6,44.7z"></path> <path id="XMLID_1337_" class="st0" d="M195.2,31.2l1.8-4.4c-2.5-1-5.9-1.5-10.3-1.5c0,0,0.1,4.8,0.1,4.8 C190.4,30,193.2,30.4,195.2,31.2z"></path> <path id="XMLID_1336_" class="st0" d="M159.7,68.5l2.5,4.1c2.8-1.7,5.5-3.4,8.1-5.1l-2.6-4C165.2,65.1,162.5,66.8,159.7,68.5z"></path> <path id="XMLID_1335_" class="st0" d="M175.5,58.1l2.8,3.9c3.5-2.5,6.8-5,9.6-7.4l-3.1-3.6C182.1,53.3,178.9,55.7,175.5,58.1z"></path> <path id="XMLID_1334_" class="st0" d="M14.2,103.4c-2.9,3.5-4.6,6.6-5.1,9.4l4.7,0.8c0.2-1.3,1.1-3.6,4-7.1L14.2,103.4z"></path> <path id="XMLID_1324_" class="st0" d="M38.2,122.2c3-0.5,6.2-1.1,9.5-1.8l-1-4.6c-3.2,0.7-6.3,1.3-9.2,1.8L38.2,122.2z"></path> <path id="XMLID_1323_" class="st0" d="M28.3,118.6c-4.6,0.3-8.4,0-11-0.8l-1.4,4.5c2.3,0.7,5.4,1.1,8.9,1.1c1.2,0,2.4,0,3.7-0.1 L28.3,118.6z"></path> <path id="XMLID_1319_" class="st0" d="M58.1,112.9l1.3,4.6c2.3-0.6,4.7-1.3,7.1-2.1l-1.4-4.6C62.7,111.5,60.4,112.2,58.1,112.9z"></path> <path id="XMLID_1309_" class="st0" d="M144.8,90.2c2.3-1.1,4.4-2.7,5.9-4.8l4.4-6c1.2-1.6,1.4-3.6,0.6-5.4c-0.8-1.8-2.5-3-4.4-3.2 l-7.4-0.7c-2.6-0.2-5.2,0.2-7.5,1.3l-11.2,5.1l-5.9-5.9l5.6-2.5c1.2-0.5,1.7-1.9,1.2-3.1c-0.5-1.2-1.9-1.7-3.1-1.2l-7.3,3.3 l-5.9-5.9l2.4-1.1c1.2-0.5,1.7-1.9,1.2-3.1c-0.5-1.2-1.9-1.7-3.1-1.2l-4.1,1.9c-6.5-5.7-15.8-7.1-23.7-3.6l-2.8,1.3l25.2,30.4 l-17.4,7.8l-15.9-9.3c-2.3-1.3-5-1-7,0.7c-2,1.8-2.5,4.5-1.4,6.8l2.4,5.4c1,2.2,2.7,4.1,4.8,5.2l1.5,0.8l-0.7,3.5 c-0.7,3.5,0.9,7.2,4,9l3.1,1.8l-0.4,1.6c-0.5,2.4-0.3,4.9,0.7,7.1l2.4,5.4c1,2.2,3,3.5,5.4,3.5c0.2,0,0.5,0,0.7,0 c2.6-0.3,4.6-2.2,5.1-4.7l3.6-18.1l17.4-7.8l6.1,39l2.8-1.3c7.9-3.6,13-11.5,13.1-20.1l4.9-2.2c1.2-0.5,1.7-1.9,1.2-3.1 c-0.5-1.2-1.9-1.7-3.1-1.2l-3.2,1.5l-0.5-8.3l7.3-3.3c1.2-0.5,1.7-1.9,1.2-3.1c-0.5-1.2-1.9-1.7-3.1-1.2l-5.6,2.5l-0.5-8.3 L144.8,90.2z M101.3,59.8l-2.9,1.3c-1.2,0.5-1.7,1.9-1.2,3.1c0.4,0.9,1.3,1.4,2.2,1.4c0.3,0,0.7-0.1,1-0.2l4.9-2.2l15.3,15.4 l-11.3,5.1L87.5,57.3C92.2,56.2,97.2,57.1,101.3,59.8z M124.3,124.3c0.4,0.9,1.3,1.4,2.2,1.4c0.3,0,0.7-0.1,1-0.2l2.9-1.3 c-0.7,4.8-3.3,9.2-7.3,12l-5.3-33.8l11.3-5.1l1.3,21.7l-4.9,2.2C124.2,121.7,123.7,123.1,124.3,124.3z M69.8,95.2l-2.4-5.4 c-0.3-0.7,0.1-1.2,0.3-1.4c0.1-0.1,0.4-0.3,0.8-0.3c0.2,0,0.4,0,0.6,0.2L82,96l-7.5,3.4l-1.9-1.1C71.4,97.6,70.4,96.5,69.8,95.2z M87.5,129.4c-0.2,0.8-0.8,0.9-1,0.9c-0.3,0-0.9,0-1.2-0.7l-2.4-5.4c-0.6-1.3-0.7-2.7-0.4-4.1l0.5-2.2l7.5-3.4L87.5,129.4z M81.1,113.7l-3.5-2.1c-1.4-0.8-2.1-2.4-1.8-4l0.8-4l15.9-7.2l0,0l45.9-20.7c1.6-0.7,3.4-1,5.1-0.9l7.4,0.7c0.3,0,0.4,0.2,0.5,0.4 c0.1,0.2,0.1,0.4-0.1,0.6l-4.4,6c-1,1.4-2.4,2.5-4,3.3l-18,8.1l-12.4,5.6l0,0L81.1,113.7z"></path> <path id="XMLID_1308_" class="st0" d="M140.1,83.4c0.4,0.9,1.3,1.4,2.2,1.4c0.3,0,0.7-0.1,1-0.2c1.2-0.5,1.7-1.9,1.2-3.1l-1.7-3.8 c-0.5-1.2-1.9-1.7-3.1-1.2c-1.2,0.5-1.7,1.9-1.2,3.1L140.1,83.4z"></path> <path id="XMLID_1283_" class="st0" d="M26,117.7c0.2,0,0.4,0,0.6-0.1c1.3-0.3,2-1.6,1.7-2.9c-0.5-2-0.9-4-1.3-6.1 c2.2,2.6,4.8,5.2,8.1,7.6c0.4,0.3,0.9,0.5,1.4,0.5c0.7,0,1.4-0.3,1.9-1c0.8-1.1,0.6-2.5-0.5-3.3c-7.1-5.3-11.3-11.2-12.1-17.1 h32.8c1.3,0,2.4-1.1,2.4-2.4c0-1.3-1.1-2.4-2.4-2.4H25.7c1.9-13.5,20-25.7,47.5-31.9c-1.2,6.7-2.1,13.9-2.6,21.4 c-0.1,1.3,0.9,2.4,2.2,2.5c0.1,0,0.1,0,0.2,0c1.2,0,2.3-1,2.4-2.2c0.5-8.6,1.6-16.7,3.2-24.2c0,0,0-0.1,0-0.1 C84.5,27.1,97,7,111.3,5v46.9c0,1.3,1.1,2.4,2.4,2.4c12.3,0,24.3,1.1,35.4,3.3c0.5,2.8,1,5.6,1.4,8.5c0.2,1.3,1.4,2.2,2.7,2 c1.3-0.2,2.2-1.4,2-2.7c-0.3-2.3-0.7-4.5-1.1-6.7c4.3,1,8.5,2.2,12.4,3.5c0.3,0.1,0.5,0.1,0.8,0.1c1,0,1.9-0.6,2.3-1.6 c0.4-1.2-0.3-2.6-1.5-3c-4.7-1.6-9.7-2.9-14.9-4.1c-4.8-22-13.3-38.8-23.7-47.3c23.3,4.2,44.1,17.7,57.6,37.8 c0.7,1.1,2.2,1.4,3.3,0.7c1.1-0.7,1.4-2.2,0.7-3.3C173.6,15.5,144.7,0,113.6,0C62.4,0,20.8,41.7,20.8,92.9c0,7.8,1,15.6,2.9,23.1 C23.9,117,24.9,117.7,26,117.7z M147.9,52.4c-10.1-1.9-20.8-2.9-31.9-3V5C129.5,6.9,141.7,25.4,147.9,52.4z M97.8,6.2 c-10.5,8.5-18.9,25.4-23.6,47.3C51.9,58.2,35.4,66.6,27,76.8C33.6,41,62,12.7,97.8,6.2z"></path> <path id="XMLID_1274_" class="st0" d="M197,51.8c-0.6-1.2-2-1.7-3.2-1.1c-1.2,0.6-1.7,2-1.1,3.2c3.7,7.4,6.2,15.2,7.7,23.2 c-4.3-5.3-10.9-10.2-19.4-14.3c-1.2-0.6-2.6-0.1-3.2,1.1c-0.6,1.2-0.1,2.6,1.1,3.2c13.5,6.6,21.5,14.8,22.7,23.4h-46.8 c-1.3,0-2.4,1.1-2.4,2.4c0,12.5-1.2,24.5-3.4,35.4c-3.4,0.7-7,1.2-10.7,1.7c-1.3,0.2-2.2,1.4-2.1,2.7c0.2,1.2,1.2,2.1,2.4,2.1 c0.1,0,0.2,0,0.3,0c3.1-0.4,6-0.9,9-1.4c-6.2,26.5-18.2,45.5-31.8,47.5v-46.9c0-0.1,0-0.1,0-0.2c0-0.1,0-0.2,0-0.3 c0-0.1,0-0.1-0.1-0.2c0-0.1,0-0.2-0.1-0.2c0-0.1-0.1-0.1-0.1-0.2c0-0.1-0.1-0.1-0.1-0.2c0-0.1-0.1-0.1-0.1-0.2 c0-0.1-0.1-0.1-0.2-0.2c-0.1-0.1-0.1-0.1-0.2-0.1c-0.1-0.1-0.1-0.1-0.2-0.1c-0.1,0-0.1-0.1-0.2-0.1c-0.1,0-0.1-0.1-0.2-0.1 c-0.1,0-0.1,0-0.2-0.1c-0.1,0-0.1-0.1-0.2-0.1c-0.1,0-0.1,0-0.2,0c-0.1,0-0.2,0-0.2,0c-3.5-0.1-12.2-0.3-17.4-0.8 c-1.3-0.1-2.5,0.8-2.6,2.1c-0.1,1.3,0.8,2.5,2.1,2.6c4.4,0.4,11.2,0.6,15.4,0.7v44.6c-14.2-2-27-21.6-32.9-51c0,0,0,0,0,0 c0,0,0,0,0,0c0,0,0,0,0,0c0-0.1-0.1-0.3-0.1-0.4c0-0.1-0.1-0.1-0.1-0.2c0-0.1-0.1-0.1-0.1-0.2c0-0.1-0.1-0.1-0.1-0.2 c0-0.1-0.1-0.1-0.1-0.2c0,0-0.1-0.1-0.1-0.1c-0.1-0.1-0.1-0.1-0.2-0.2c0,0-0.1,0-0.1-0.1c-0.1-0.1-0.2-0.1-0.3-0.2 c0,0-0.1,0-0.1,0c-0.1,0-0.2-0.1-0.3-0.1c-8.7-1.8-16.7-4.2-23.7-7.2c-1.2-0.5-2.6,0.1-3.1,1.3c-0.5,1.2,0.1,2.6,1.3,3.1 c6.9,2.9,14.7,5.3,23.1,7.2c4.7,22.3,13.1,38.9,23.4,47.3c-29.3-5.4-54.1-25.3-65.6-53.8c-0.5-1.2-1.9-1.8-3.1-1.3 c-1.2,0.5-1.8,1.9-1.3,3.1c14.2,35.4,48.1,58.2,86.2,58.2c51.2,0,92.9-41.7,92.9-92.9C206.5,78.5,203.3,64.7,197,51.8z M157.1,95.3h44.5c-1.9,13.5-20.3,25.7-47.4,31.9C155.9,117.3,156.9,106.6,157.1,95.3z M129.5,179.5c10.5-8.6,18.9-25.5,23.6-47.3 c22-4.7,38.7-13.2,47.2-23.6C193.8,144.6,165.4,173,129.5,179.5z"></path> </g> <rect id="XMLID_719_" y="72.5" class="st1" width="216.7" height="42.5"></rect> <g id="XMLID_622_"> <g id="XMLID_652_"> <g id="XMLID_1235_"> <path id="XMLID_1271_" class="st2" d="M21,92.1c-0.2-0.1-0.3-0.2-0.4-0.4c-0.1-0.2-0.1-0.5-0.2-1l-0.5-9.6c0-0.6,0.1-1,0.4-1.3 c0.3-0.3,0.8-0.4,1.4-0.4c0,0,0.1,0,0.1-0.1s0-0.1-0.1-0.1c-0.4,0-0.7,0-0.8,0l-1.3,0c-0.2,0-0.4,0-0.6,0c-0.2,0-0.3,0-0.4,0 c-0.2,0-0.3,0-0.4,0.1c-0.1,0.1-0.2,0.2-0.3,0.4L14,89l-4.6-8.7c-0.3-0.5-0.5-0.8-0.6-0.9c-0.1-0.1-0.2-0.2-0.4-0.2 c-0.2,0-0.4,0-0.5,0l-1.1,0c-0.3,0-0.6,0-0.8,0l-1,0c0,0-0.1,0-0.1,0.1s0,0.1,0.1,0.1c0.4,0,0.7,0.1,1.1,0.4 c0.3,0.2,0.6,0.6,0.9,1.1l0,0l-0.2,8.8c0,0.8-0.2,1.3-0.5,1.8c-0.3,0.4-0.8,0.7-1.4,0.7c0,0-0.1,0-0.1,0.1s0,0.1,0.1,0.1 c0.4,0,0.7,0,0.9,0l1.3,0l1.2,0c0.2,0,0.5,0,0.9,0c0,0,0.1,0,0.1-0.1s0-0.1-0.1-0.1c-0.6,0-1-0.2-1.3-0.6 c-0.3-0.4-0.5-1-0.5-1.8l0.2-7.7l5.4,10.2c0,0.1,0.1,0.1,0.2,0.1c0.1,0,0.1,0,0.2-0.1L17.6,82l0.4,8.7l0,0.4 c0,0.5-0.1,0.8-0.3,0.9c-0.2,0.1-0.6,0.2-1.2,0.2c0,0-0.1,0-0.1,0.1s0,0.1,0.1,0.1c0.5,0,0.8,0,1.1,0l1.6,0l1.6,0 c0.3,0,0.7,0,1.1,0c0,0,0,0,0-0.1s0-0.1,0-0.1C21.5,92.2,21.2,92.2,21,92.1z"></path> <path id="XMLID_1268_" class="st2" d="M34.7,79.9c-1-0.6-2.2-0.9-3.5-0.9c-1.2,0-2.4,0.3-3.5,0.8c-1.2,0.5-2.1,1.3-2.8,2.3 c-0.7,1-1.1,2.3-1.1,3.7c0,1.2,0.3,2.4,0.8,3.5c0.6,1.1,1.4,1.9,2.4,2.5s2.2,0.9,3.5,0.9c1.3,0,2.6-0.3,3.7-0.9 c1.1-0.6,2.1-1.5,2.7-2.6c0.7-1.1,1-2.3,1-3.5c0-1.2-0.3-2.3-0.8-3.3C36.6,81.3,35.8,80.5,34.7,79.9z M34.8,89.5 c-0.4,0.9-0.8,1.6-1.5,2c-0.6,0.5-1.3,0.7-2.1,0.7c-0.9,0-1.7-0.3-2.5-0.9c-0.7-0.6-1.3-1.5-1.7-2.5c-0.4-1.1-0.6-2.3-0.6-3.7 c0-1.7,0.3-3.1,1-4.1c0.7-1,1.7-1.5,3-1.5c1,0,1.9,0.3,2.6,0.9c0.8,0.6,1.3,1.4,1.7,2.4c0.4,1,0.6,2.2,0.6,3.5 C35.3,87.5,35.1,88.6,34.8,89.5z"></path> <path id="XMLID_1265_" class="st2" d="M52.5,91.5c-0.6-0.4-1.3-1.1-2-2.1c-0.8-1-1.7-2.3-2.8-4c0.7-0.4,1.3-0.9,1.7-1.5 c0.4-0.6,0.6-1.3,0.6-2.1c0-0.9-0.4-1.5-1.1-2c-0.7-0.5-1.7-0.7-3-0.7c-0.3,0-0.6,0-0.9,0c-0.3,0-0.5,0-0.7,0 c-0.5,0-1,0.1-1.5,0.1c-0.4,0-0.9,0-1.6,0l-1.1,0c0,0,0,0,0,0.1s0,0.1,0,0.1c0.4,0,0.8,0,1,0.1c0.2,0.1,0.4,0.2,0.4,0.4 c0.1,0.2,0.1,0.5,0.1,0.9v9.8c0,0.4,0,0.7-0.1,0.9c-0.1,0.2-0.2,0.3-0.4,0.4s-0.5,0.1-1,0.1c0,0-0.1,0-0.1,0.1s0,0.1,0.1,0.1 c0.5,0,0.9,0,1.1,0l1.6,0l1.6,0c0.3,0,0.6,0,1.1,0c0,0,0,0,0-0.1s0-0.1,0-0.1c-0.5,0-0.8,0-1-0.1c-0.2-0.1-0.3-0.2-0.4-0.4 c-0.1-0.2-0.1-0.5-0.1-1V86c0.2,0,0.6,0,1.2,0c0.2,0,0.4,0,0.5,0c1.2,2,2.2,3.6,3.1,4.7c0.8,1.1,1.4,1.7,1.7,1.7h3.8 c0,0,0,0,0-0.1s0-0.1,0-0.1C53.6,92.2,53.1,92,52.5,91.5z M47,84.8c-0.4,0.5-1,0.7-1.8,0.7c-0.5,0-0.9,0-1.2-0.1v-4.5 c0-0.5,0.1-0.9,0.4-1.1c0.2-0.2,0.6-0.3,1.2-0.3c0.6,0,1.1,0.2,1.5,0.7c0.3,0.4,0.5,1.2,0.5,2.4C47.5,83.6,47.3,84.4,47,84.8z"></path> <path id="XMLID_1264_" class="st2" d="M64.8,89C64.8,89,64.8,89,64.8,89c-0.4,1-0.9,1.7-1.6,2.1c-0.7,0.5-1.6,0.7-2.7,0.7h-0.7 c-0.3,0-0.6-0.1-0.7-0.3C59,91.4,59,91.1,59,90.6v-4.8h1.7c0.8,0,1.5,0.2,1.9,0.5c0.4,0.3,0.7,0.8,0.7,1.4c0,0,0,0,0.1,0 c0.1,0,0.1,0,0.1,0c0-0.3,0-0.7,0-1.1l0-1l0-1.9c0,0,0-0.1-0.1-0.1c-0.1,0-0.1,0-0.1,0.1c0,0.5-0.2,0.9-0.7,1.2 c-0.4,0.3-1.1,0.4-1.9,0.4H59v-4.3c0-0.4,0.1-0.7,0.3-0.8c0.2-0.2,0.5-0.3,0.9-0.3h0.6c0.9,0,1.6,0.2,2.1,0.6 c0.5,0.4,0.9,1,1.1,1.8c0,0,0.1,0.1,0.1,0c0.1,0,0.1,0,0.1-0.1l0-2.8c0-0.1-0.1-0.2-0.2-0.2h-9c0,0-0.1,0-0.1,0.1s0,0.1,0.1,0.1 c0.4,0,0.8,0,1,0.1c0.2,0.1,0.4,0.2,0.4,0.4c0.1,0.2,0.1,0.5,0.1,0.9v9.8c0,0.4,0,0.7-0.1,0.9c-0.1,0.2-0.2,0.3-0.4,0.4 c-0.2,0.1-0.5,0.1-1,0.1c0,0-0.1,0-0.1,0.1s0,0.1,0.1,0.1h9.4c0.1,0,0.2,0,0.3-0.1c0,0,0.1-0.1,0.1-0.2c0-0.9,0.1-1.9,0.2-3 c0,0,0,0-0.1-0.1C64.9,89,64.9,89,64.8,89z"></path> <path id="XMLID_1258_" class="st2" d="M80.6,79.2c-0.5,0-0.9,0-1.2,0c-0.3,0-0.7,0-1.1,0l-0.9,0c0,0,0,0,0,0.1s0,0.1,0,0.1 c0.6,0,1,0.2,1.3,0.7c0.3,0.4,0.5,1,0.5,1.8v6.9l-7.4-8.5c-0.1-0.1-0.3-0.3-0.5-0.7c-0.1-0.2-0.2-0.3-0.3-0.4s-0.1-0.1-0.3-0.1 c-0.3,0-0.5,0-0.7,0l-1.6,0c-0.4,0-0.6,0-0.8,0l-0.9,0c0,0,0,0,0,0.1s0,0.1,0,0.1c0.4,0,0.7,0.1,1,0.3c0.3,0.2,0.7,0.5,1.2,1.1 v9c0,0.8-0.2,1.3-0.5,1.8c-0.4,0.4-0.9,0.7-1.5,0.7c0,0-0.1,0-0.1,0.1s0,0.1,0.1,0.1c0.5,0,0.8,0,1,0l1.3,0l1.1,0 c0.2,0,0.5,0,0.9,0c0,0,0,0,0-0.1s0-0.1,0-0.1c-0.6,0-1-0.2-1.3-0.7c-0.3-0.4-0.5-1-0.5-1.8v-8.3l10,11.3c0,0,0.1,0,0.1,0 s0.1,0,0.1-0.1V81.9c0-0.8,0.2-1.3,0.5-1.8c0.3-0.4,0.8-0.7,1.3-0.7c0,0,0,0,0-0.1s0-0.1,0-0.1L80.6,79.2z"></path> <path id="XMLID_1255_" class="st2" d="M94.1,79.9c-1-0.6-2.2-0.9-3.5-0.9c-1.2,0-2.4,0.3-3.5,0.8c-1.2,0.5-2.1,1.3-2.8,2.3 c-0.7,1-1.1,2.3-1.1,3.7c0,1.2,0.3,2.4,0.8,3.5c0.6,1.1,1.4,1.9,2.4,2.5s2.2,0.9,3.5,0.9c1.3,0,2.6-0.3,3.7-0.9 c1.1-0.6,2.1-1.5,2.7-2.6c0.7-1.1,1-2.3,1-3.5c0-1.2-0.3-2.3-0.8-3.3C95.9,81.3,95.1,80.5,94.1,79.9z M94.1,89.5 c-0.4,0.9-0.8,1.6-1.5,2c-0.6,0.5-1.3,0.7-2.1,0.7c-0.9,0-1.7-0.3-2.5-0.9c-0.7-0.6-1.3-1.5-1.7-2.5c-0.4-1.1-0.6-2.3-0.6-3.7 c0-1.7,0.3-3.1,1-4.1c0.7-1,1.7-1.5,3-1.5c1,0,1.9,0.3,2.6,0.9c0.8,0.6,1.3,1.4,1.7,2.4c0.4,1,0.6,2.2,0.6,3.5 C94.6,87.5,94.4,88.6,94.1,89.5z"></path> <path id="XMLID_1250_" class="st2" d="M112.2,91.4c-0.7-0.4-1.5-0.9-2.5-1.6c0.3-0.4,0.5-0.9,0.7-1.4c0.2-0.5,0.3-1,0.5-1.6 c0.1-0.5,0.2-0.8,0.3-1c0.1-0.2,0.3-0.4,0.5-0.5c0.2-0.1,0.5-0.1,0.9-0.1c0,0,0.1,0,0.1-0.1s0-0.1-0.1-0.1l-5.1,0 c0,0-0.1,0-0.1,0.1c0,0.1,0,0.1,0.1,0.1c0.6,0,1,0.2,1.3,0.6c0.3,0.4,0.4,1,0.4,1.8c0,0.6-0.1,1.2-0.2,1.7 c-1.8-1.5-3.3-2.9-4.3-4.5c0.9-0.6,1.5-1,1.9-1.3c0.4-0.3,0.8-0.7,1.1-1.2c0.3-0.5,0.5-1,0.5-1.5c0-0.7-0.3-1.2-0.8-1.6 c-0.5-0.4-1.2-0.6-2.1-0.6c-1.3,0-2.3,0.4-3,1.1c-0.7,0.7-1.1,1.7-1.1,2.8c0,0.4,0.1,0.8,0.2,1.2c0.1,0.4,0.3,0.7,0.5,1.1 c0.2,0.4,0.4,0.7,0.7,1c-0.9,0.7-1.7,1.3-2.1,1.9c-0.5,0.5-0.7,1.1-0.7,1.8c0,0.5,0.2,1,0.5,1.5c0.3,0.5,0.8,0.8,1.5,1.1 c0.7,0.3,1.5,0.4,2.5,0.4c1.6,0,3-0.4,4.1-1.3c1,0.7,1.6,1,2,1h3.5c0,0,0.1,0,0.1-0.1c0-0.1,0-0.1-0.1-0.1 C113.5,92.1,112.9,91.8,112.2,91.4z M103.7,79.7c0.2-0.3,0.5-0.4,0.9-0.4c0.5,0,0.8,0.2,1.1,0.5c0.3,0.4,0.4,0.8,0.4,1.5 c0,1.1-0.5,2.1-1.5,3.1c-0.8-1.3-1.2-2.5-1.2-3.6C103.4,80.3,103.5,79.9,103.7,79.7z M105.9,91.7c-0.8,0-1.5-0.2-2.1-0.5 c-0.6-0.3-1.1-0.7-1.4-1.2s-0.5-1-0.5-1.6c0-0.7,0.3-1.4,1-2.1c0.6,0.7,1.2,1.4,1.9,2.1c0.7,0.7,1.5,1.4,2.2,1.9 c0.4,0.3,0.7,0.5,0.9,0.7C107.4,91.5,106.8,91.7,105.9,91.7z"></path> <path id="XMLID_1249_" class="st2" d="M130.6,92.1c-0.2-0.1-0.3-0.2-0.4-0.4s-0.1-0.5-0.2-1l-0.5-9.6c0-0.6,0.1-1,0.4-1.3 c0.3-0.3,0.8-0.4,1.4-0.4c0,0,0.1,0,0.1-0.1s0-0.1-0.1-0.1c-0.4,0-0.7,0-0.8,0l-1.3,0c-0.2,0-0.4,0-0.6,0c-0.2,0-0.3,0-0.4,0 c-0.2,0-0.3,0-0.4,0.1c-0.1,0.1-0.2,0.2-0.3,0.4l-4,9.3l-4.6-8.7c-0.3-0.5-0.5-0.8-0.6-0.9c-0.1-0.1-0.2-0.2-0.4-0.2 c-0.2,0-0.4,0-0.5,0l-1.1,0c-0.3,0-0.6,0-0.8,0l-1,0c0,0-0.1,0-0.1,0.1s0,0.1,0.1,0.1c0.4,0,0.7,0.1,1.1,0.4 c0.3,0.2,0.6,0.6,0.9,1.1l0,0l-0.2,8.8c0,0.8-0.2,1.3-0.5,1.8c-0.3,0.4-0.8,0.7-1.4,0.7c0,0-0.1,0-0.1,0.1s0,0.1,0.1,0.1 c0.4,0,0.7,0,0.9,0l1.3,0l1.2,0c0.2,0,0.5,0,0.9,0c0,0,0.1,0,0.1-0.1s0-0.1-0.1-0.1c-0.6,0-1-0.2-1.3-0.6 c-0.3-0.4-0.5-1-0.5-1.8l0.2-7.7l5.4,10.2c0,0.1,0.1,0.1,0.2,0.1c0.1,0,0.1,0,0.2-0.1l4.4-10.3l0.4,8.7l0,0.4 c0,0.5-0.1,0.8-0.3,0.9c-0.2,0.1-0.6,0.2-1.2,0.2c0,0-0.1,0-0.1,0.1s0,0.1,0.1,0.1c0.5,0,0.8,0,1.1,0l1.6,0l1.6,0 c0.3,0,0.7,0,1.1,0c0,0,0,0,0-0.1s0-0.1,0-0.1C131.2,92.2,130.8,92.2,130.6,92.1z"></path> <path id="XMLID_1246_" class="st2" d="M144.4,79.9c-1-0.6-2.2-0.9-3.5-0.9c-1.2,0-2.4,0.3-3.5,0.8c-1.2,0.5-2.1,1.3-2.8,2.3 c-0.7,1-1.1,2.3-1.1,3.7c0,1.2,0.3,2.4,0.8,3.5c0.6,1.1,1.4,1.9,2.4,2.5s2.2,0.9,3.5,0.9c1.3,0,2.6-0.3,3.7-0.9s2.1-1.5,2.7-2.6 c0.7-1.1,1-2.3,1-3.5c0-1.2-0.3-2.3-0.8-3.3C146.2,81.3,145.4,80.5,144.4,79.9z M144.4,89.5c-0.4,0.9-0.8,1.6-1.5,2 c-0.6,0.5-1.3,0.7-2.1,0.7c-0.9,0-1.7-0.3-2.5-0.9c-0.7-0.6-1.3-1.5-1.7-2.5c-0.4-1.1-0.6-2.3-0.6-3.7c0-1.7,0.3-3.1,1-4.1 c0.7-1,1.7-1.5,3-1.5c1,0,1.9,0.3,2.6,0.9c0.8,0.6,1.3,1.4,1.7,2.4c0.4,1,0.6,2.2,0.6,3.5C145,87.5,144.8,88.6,144.4,89.5z"></path> <path id="XMLID_1243_" class="st2" d="M162.1,91.5c-0.6-0.4-1.3-1.1-2-2.1c-0.8-1-1.7-2.3-2.8-4c0.7-0.4,1.3-0.9,1.7-1.5 c0.4-0.6,0.6-1.3,0.6-2.1c0-0.9-0.4-1.5-1.1-2c-0.7-0.5-1.7-0.7-3-0.7c-0.3,0-0.6,0-0.9,0c-0.3,0-0.5,0-0.7,0 c-0.5,0-1,0.1-1.5,0.1c-0.4,0-0.9,0-1.6,0l-1.1,0c0,0,0,0,0,0.1s0,0.1,0,0.1c0.4,0,0.8,0,1,0.1c0.2,0.1,0.4,0.2,0.4,0.4 c0.1,0.2,0.1,0.5,0.1,0.9v9.8c0,0.4,0,0.7-0.1,0.9c-0.1,0.2-0.2,0.3-0.4,0.4s-0.5,0.1-1,0.1c0,0-0.1,0-0.1,0.1s0,0.1,0.1,0.1 c0.5,0,0.9,0,1.1,0l1.6,0l1.6,0c0.3,0,0.6,0,1.1,0c0,0,0,0,0-0.1s0-0.1,0-0.1c-0.5,0-0.8,0-1-0.1s-0.3-0.2-0.4-0.4 c-0.1-0.2-0.1-0.5-0.1-1V86c0.2,0,0.6,0,1.2,0c0.2,0,0.4,0,0.5,0c1.2,2,2.2,3.6,3.1,4.7c0.8,1.1,1.4,1.7,1.7,1.7h3.8 c0,0,0,0,0-0.1s0-0.1,0-0.1C163.3,92.2,162.7,92,162.1,91.5z M156.6,84.8c-0.4,0.5-1,0.7-1.8,0.7c-0.5,0-0.9,0-1.2-0.1v-4.5 c0-0.5,0.1-0.9,0.4-1.1c0.2-0.2,0.6-0.3,1.2-0.3c0.6,0,1.1,0.2,1.5,0.7c0.3,0.4,0.5,1.2,0.5,2.4C157.1,83.6,157,84.4,156.6,84.8 z"></path> <path id="XMLID_1241_" class="st2" d="M174.5,89C174.4,89,174.4,89,174.5,89c-0.4,1-0.9,1.7-1.6,2.1c-0.7,0.5-1.6,0.7-2.7,0.7 h-0.7c-0.3,0-0.6-0.1-0.7-0.3c-0.2-0.2-0.2-0.5-0.2-0.9v-4.8h1.7c0.8,0,1.5,0.2,1.9,0.5c0.4,0.3,0.7,0.8,0.7,1.4c0,0,0,0,0.1,0 s0.1,0,0.1,0c0-0.3,0-0.7,0-1.1l0-1l0-1.9c0,0,0-0.1-0.1-0.1s-0.1,0-0.1,0.1c0,0.5-0.2,0.9-0.7,1.2c-0.4,0.3-1.1,0.4-1.9,0.4 h-1.8v-4.3c0-0.4,0.1-0.7,0.3-0.8c0.2-0.2,0.5-0.3,0.9-0.3h0.6c0.9,0,1.6,0.2,2.1,0.6c0.5,0.4,0.9,1,1.1,1.8c0,0,0.1,0.1,0.1,0 c0.1,0,0.1,0,0.1-0.1l0-2.8c0-0.1-0.1-0.2-0.2-0.2h-9c0,0-0.1,0-0.1,0.1s0,0.1,0.1,0.1c0.4,0,0.8,0,1,0.1 c0.2,0.1,0.4,0.2,0.4,0.4c0.1,0.2,0.1,0.5,0.1,0.9v9.8c0,0.4,0,0.7-0.1,0.9c-0.1,0.2-0.2,0.3-0.4,0.4s-0.5,0.1-1,0.1 c0,0-0.1,0-0.1,0.1s0,0.1,0.1,0.1h9.4c0.1,0,0.2,0,0.3-0.1c0,0,0.1-0.1,0.1-0.2c0-0.9,0.1-1.9,0.2-3c0,0,0,0-0.1-0.1 C174.6,89,174.5,89,174.5,89z"></path> <path id="XMLID_1240_" class="st2" d="M190.2,79.2c-0.5,0-0.9,0-1.2,0c-0.3,0-0.7,0-1.1,0l-0.9,0c0,0,0,0,0,0.1s0,0.1,0,0.1 c0.6,0,1,0.2,1.3,0.7c0.3,0.4,0.5,1,0.5,1.8v6.9l-7.4-8.5c-0.1-0.1-0.3-0.3-0.5-0.7c-0.1-0.2-0.2-0.3-0.3-0.4 c-0.1-0.1-0.1-0.1-0.3-0.1c-0.3,0-0.5,0-0.7,0l-1.6,0c-0.4,0-0.6,0-0.8,0l-0.9,0c0,0,0,0,0,0.1s0,0.1,0,0.1c0.4,0,0.7,0.1,1,0.3 c0.3,0.2,0.7,0.5,1.2,1.1v9c0,0.8-0.2,1.3-0.5,1.8c-0.4,0.4-0.9,0.7-1.5,0.7c0,0-0.1,0-0.1,0.1s0,0.1,0.1,0.1c0.5,0,0.8,0,1,0 l1.3,0l1.1,0c0.2,0,0.5,0,0.9,0c0,0,0,0,0-0.1s0-0.1,0-0.1c-0.6,0-1-0.2-1.3-0.7c-0.3-0.4-0.5-1-0.5-1.8v-8.3l10,11.3 c0,0,0.1,0,0.1,0c0.1,0,0.1,0,0.1-0.1V81.9c0-0.8,0.2-1.3,0.5-1.8s0.8-0.7,1.3-0.7c0,0,0,0,0-0.1s0-0.1,0-0.1L190.2,79.2z"></path> <path id="XMLID_1237_" class="st2" d="M206.1,82.4c-0.5-1-1.3-1.9-2.3-2.5c-1-0.6-2.2-0.9-3.5-0.9c-1.2,0-2.4,0.3-3.5,0.8 c-1.2,0.5-2.1,1.3-2.8,2.3c-0.7,1-1.1,2.3-1.1,3.7c0,1.2,0.3,2.4,0.8,3.5c0.6,1.1,1.4,1.9,2.4,2.5s2.2,0.9,3.5,0.9 c1.3,0,2.6-0.3,3.7-0.9s2.1-1.5,2.7-2.6c0.7-1.1,1-2.3,1-3.5C206.9,84.5,206.6,83.4,206.1,82.4z M203.7,89.5 c-0.4,0.9-0.8,1.6-1.5,2c-0.6,0.5-1.3,0.7-2.1,0.7c-0.9,0-1.7-0.3-2.5-0.9c-0.7-0.6-1.3-1.5-1.7-2.5c-0.4-1.1-0.6-2.3-0.6-3.7 c0-1.7,0.3-3.1,1-4.1c0.7-1,1.7-1.5,3-1.5c1,0,1.9,0.3,2.6,0.9c0.8,0.6,1.3,1.4,1.7,2.4c0.4,1,0.6,2.2,0.6,3.5 C204.3,87.5,204.1,88.6,203.7,89.5z"></path> </g> <g id="XMLID_682_"> <path id="XMLID_1230_" class="st2" d="M18.9,105.5h3.5l-0.2,0.8h-2.7l-0.3,1.3h2.4l-0.2,0.8H19l-0.3,1.3h2.7l-0.2,0.8h-3.6 L18.9,105.5z"></path> <path id="XMLID_1224_" class="st2" d="M24.2,107.8l-1.1-2.3h1l0.8,1.7l1.6-1.7h1.1l-2.3,2.4l1.1,2.4h-1l-0.8-1.8l-1.7,1.8h-1.1 L24.2,107.8z"></path> <path id="XMLID_1219_" class="st2" d="M28.5,105.5h1.5c0.7,0,1.1,0.1,1.5,0.5c0.2,0.2,0.4,0.6,0.4,1c0,1.2-1,1.8-2.4,1.8h-1 l-0.4,1.6h-0.9L28.5,105.5z M29.6,108c0.9,0,1.4-0.4,1.4-1c0-0.2-0.1-0.4-0.2-0.5c-0.2-0.2-0.4-0.2-0.8-0.2h-0.9l-0.5,1.7H29.6z "></path> <path id="XMLID_1216_" class="st2" d="M33.3,105.5h3.5l-0.2,0.8H34l-0.3,1.3H36l-0.2,0.8h-2.4l-0.3,1.3h2.7l-0.2,0.8H32 L33.3,105.5z"></path> <path id="XMLID_1213_" class="st2" d="M38,105.5h1.8c0.7,0,1.2,0.2,1.5,0.5c0.2,0.2,0.4,0.5,0.4,0.9c0,0.4-0.2,0.8-0.4,1.1 c-0.3,0.3-0.7,0.5-1.2,0.6l0.9,1.8h-1l-0.8-1.7h-1l-0.4,1.7h-0.9L38,105.5z M39.3,107.9c0.5,0,0.9-0.1,1.1-0.4 c0.2-0.2,0.2-0.3,0.2-0.6c0-0.2-0.1-0.3-0.2-0.4c-0.2-0.2-0.4-0.2-0.8-0.2h-1.1l-0.4,1.6H39.3z"></path> <path id="XMLID_1209_" class="st2" d="M43.8,106.2h-1.5l0.2-0.8h3.9l-0.2,0.8h-1.5l-1.1,4h-0.8L43.8,106.2z"></path> <path id="XMLID_1195_" class="st2" d="M46.3,108.3c0-1.5,1.2-2.9,2.9-2.9c1.3,0,2.2,0.9,2.2,2.1c0,1.5-1.2,2.9-2.9,2.9 C47.2,110.4,46.3,109.5,46.3,108.3z M50.5,107.5c0-0.8-0.5-1.4-1.4-1.4c-1.1,0-1.9,1.1-1.9,2.1c0,0.8,0.5,1.4,1.4,1.4 C49.7,109.6,50.5,108.5,50.5,107.5z"></path> <path id="XMLID_1193_" class="st2" d="M51.7,109.5l0.6-0.5c0.4,0.4,0.8,0.7,1.5,0.7c0.5,0,0.9-0.3,0.9-0.7 c0-0.3-0.2-0.5-0.9-0.7c-0.7-0.3-1.2-0.6-1.2-1.3c0-0.9,0.8-1.5,1.9-1.5c0.8,0,1.4,0.3,1.8,0.7l-0.6,0.6 c-0.4-0.4-0.7-0.6-1.2-0.6c-0.6,0-0.9,0.3-0.9,0.6c0,0.3,0.2,0.5,0.9,0.7c0.7,0.3,1.2,0.6,1.2,1.3c0,0.9-0.9,1.5-1.9,1.5 C52.8,110.4,52.1,110,51.7,109.5z"></path> <path id="XMLID_1191_" class="st2" d="M59.9,105.5h3.5l-0.2,0.8h-2.7l-0.3,1.3h2.4l-0.2,0.8H60l-0.3,1.3h2.7l-0.2,0.8h-3.6 L59.9,105.5z"></path> <path id="XMLID_1189_" class="st2" d="M64.6,105.5h0.8l1.6,3.4l0.9-3.4h0.8l-1.3,4.8h-0.7l-1.7-3.5l-0.9,3.5h-0.8L64.6,105.5z"></path> <path id="XMLID_1187_" class="st2" d="M71.4,108.3c0-1.6,1.3-2.9,2.9-2.9c0.9,0,1.5,0.4,1.9,1l-0.7,0.5 c-0.3-0.4-0.6-0.7-1.3-0.7c-1,0-1.9,1-1.9,2.1c0,0.8,0.5,1.3,1.3,1.3c0.5,0,0.9-0.2,1.3-0.6l0.6,0.6c-0.5,0.4-1,0.8-1.9,0.8 C72.4,110.4,71.4,109.6,71.4,108.3z"></path> <path id="XMLID_1184_" class="st2" d="M76.5,108.3c0-1.5,1.2-2.9,2.9-2.9c1.3,0,2.2,0.9,2.2,2.1c0,1.5-1.2,2.9-2.9,2.9 C77.3,110.4,76.5,109.5,76.5,108.3z M80.6,107.5c0-0.8-0.5-1.4-1.4-1.4c-1.1,0-1.9,1.1-1.9,2.1c0,0.8,0.5,1.4,1.4,1.4 C79.8,109.6,80.6,108.5,80.6,107.5z"></path> <path id="XMLID_1182_" class="st2" d="M83.3,105.5h0.9l0.8,2.3l2.1-2.3h1l-1.3,4.8h-0.9l0.9-3.5l-2.1,2.3h0l-0.9-2.3l-0.9,3.5 H82L83.3,105.5z"></path> <path id="XMLID_1180_" class="st2" d="M89.4,105.5H93l-0.2,0.8h-2.7l-0.3,1.3h2.4l-0.2,0.8h-2.4l-0.3,1.3h2.7l-0.2,0.8h-3.6 L89.4,105.5z"></path> <path id="XMLID_1176_" class="st2" d="M94.1,105.5h1.8c0.7,0,1.2,0.2,1.5,0.5c0.2,0.2,0.4,0.5,0.4,0.9c0,0.4-0.2,0.8-0.4,1.1 c-0.3,0.3-0.7,0.5-1.2,0.6l0.9,1.8h-1l-0.8-1.7h-1l-0.4,1.7h-0.9L94.1,105.5z M95.4,107.9c0.5,0,0.9-0.1,1.1-0.4 c0.2-0.2,0.2-0.3,0.2-0.6c0-0.2-0.1-0.3-0.2-0.4c-0.2-0.2-0.4-0.2-0.8-0.2h-1.1l-0.4,1.6H95.4z"></path> <path id="XMLID_1174_" class="st2" d="M98.3,108.3c0-1.6,1.3-2.9,2.9-2.9c0.9,0,1.5,0.4,1.9,1l-0.7,0.5 c-0.3-0.4-0.6-0.7-1.3-0.7c-1,0-1.9,1-1.9,2.1c0,0.8,0.5,1.3,1.3,1.3c0.5,0,0.9-0.2,1.3-0.6l0.6,0.6c-0.5,0.4-1,0.8-1.9,0.8 C99.3,110.4,98.3,109.6,98.3,108.3z"></path> <path id="XMLID_1172_" class="st2" d="M104.5,105.5h0.9l-1.3,4.8h-0.9L104.5,105.5z"></path> <path id="XMLID_1169_" class="st2" d="M105.8,108.3c0-1.5,1.2-2.9,2.9-2.9c1.3,0,2.2,0.9,2.2,2.1c0,1.5-1.2,2.9-2.9,2.9 C106.7,110.4,105.8,109.5,105.8,108.3z M110,107.5c0-0.8-0.5-1.4-1.4-1.4c-1.1,0-1.9,1.1-1.9,2.1c0,0.8,0.5,1.4,1.4,1.4 C109.2,109.6,110,108.5,110,107.5z"></path> <path id="XMLID_1167_" class="st2" d="M114.9,105.5h3.5l-0.2,0.8h-2.7l-0.3,1.3h2.4l-0.2,0.8H115l-0.3,1.3h2.7l-0.2,0.8h-3.6 L114.9,105.5z"></path> <path id="XMLID_1157_" class="st2" d="M120.2,107.8l-1.1-2.3h1l0.8,1.7l1.6-1.7h1.1l-2.3,2.4l1.1,2.4h-1l-0.8-1.8l-1.7,1.8h-1.1 L120.2,107.8z"></path> <path id="XMLID_1154_" class="st2" d="M125.4,106.2h-1.5l0.2-0.8h3.9l-0.2,0.8h-1.5l-1.1,4h-0.8L125.4,106.2z"></path> <path id="XMLID_1152_" class="st2" d="M128.9,105.5h3.5l-0.2,0.8h-2.7l-0.3,1.3h2.4l-0.2,0.8H129l-0.3,1.3h2.7l-0.2,0.8h-3.6 L128.9,105.5z"></path> <path id="XMLID_1149_" class="st2" d="M133.6,105.5h1.8c0.7,0,1.2,0.2,1.5,0.5c0.2,0.2,0.4,0.5,0.4,0.9c0,0.4-0.2,0.8-0.4,1.1 c-0.3,0.3-0.7,0.5-1.2,0.6l0.9,1.8h-1l-0.8-1.7h-1l-0.4,1.7h-0.9L133.6,105.5z M134.9,107.9c0.5,0,0.9-0.1,1.1-0.4 c0.2-0.2,0.2-0.3,0.2-0.6c0-0.2-0.1-0.3-0.2-0.4c-0.2-0.2-0.4-0.2-0.8-0.2h-1.1l-0.4,1.6H134.9z"></path> <path id="XMLID_1144_" class="st2" d="M138.8,105.5h0.9l-1.3,4.8h-0.9L138.8,105.5z"></path> <path id="XMLID_874_" class="st2" d="M140.2,108.3c0-1.5,1.2-2.9,2.9-2.9c1.3,0,2.2,0.9,2.2,2.1c0,1.5-1.2,2.9-2.9,2.9 C141,110.4,140.2,109.5,140.2,108.3z M144.3,107.5c0-0.8-0.5-1.4-1.4-1.4c-1.1,0-1.9,1.1-1.9,2.1c0,0.8,0.5,1.4,1.4,1.4 C143.5,109.6,144.3,108.5,144.3,107.5z"></path> <path id="XMLID_869_" class="st2" d="M147,105.5h1.8c0.7,0,1.2,0.2,1.5,0.5c0.2,0.2,0.4,0.5,0.4,0.9c0,0.4-0.2,0.8-0.4,1.1 c-0.3,0.3-0.7,0.5-1.2,0.6l0.9,1.8h-1l-0.8-1.7h-1l-0.4,1.7h-0.9L147,105.5z M148.3,107.9c0.5,0,0.9-0.1,1.1-0.4 c0.2-0.2,0.2-0.3,0.2-0.6c0-0.2-0.1-0.3-0.2-0.4c-0.2-0.2-0.4-0.2-0.8-0.2h-1.1l-0.4,1.6H148.3z"></path> <path id="XMLID_804_" class="st2" d="M154.3,105.5h1.3c0.9,0,1.5,0.2,1.9,0.6c0.4,0.4,0.5,0.8,0.5,1.4c0,0.7-0.3,1.4-0.8,1.9 c-0.6,0.6-1.4,0.9-2.5,0.9H153L154.3,105.5z M154.9,109.5c0.7,0,1.3-0.2,1.8-0.7c0.3-0.3,0.5-0.8,0.5-1.3c0-0.4-0.1-0.7-0.3-0.9 c-0.3-0.3-0.7-0.4-1.3-0.4H155l-0.9,3.3H154.9z"></path> <path id="XMLID_798_" class="st2" d="M159.8,105.5h3.5l-0.2,0.8h-2.7l-0.3,1.3h2.4l-0.2,0.8h-2.4l-0.3,1.3h2.7l-0.2,0.8h-3.6 L159.8,105.5z"></path> <path id="XMLID_791_" class="st2" d="M163.1,109.5l0.6-0.5c0.4,0.4,0.8,0.7,1.5,0.7c0.5,0,0.9-0.3,0.9-0.7 c0-0.3-0.2-0.5-0.9-0.7c-0.7-0.3-1.2-0.6-1.2-1.3c0-0.9,0.8-1.5,1.9-1.5c0.8,0,1.4,0.3,1.8,0.7l-0.6,0.6 c-0.4-0.4-0.7-0.6-1.2-0.6c-0.6,0-0.9,0.3-0.9,0.6c0,0.3,0.2,0.5,0.9,0.7c0.7,0.3,1.2,0.6,1.2,1.3c0,0.9-0.9,1.5-1.9,1.5 C164.2,110.4,163.5,110,163.1,109.5z"></path> <path id="XMLID_773_" class="st2" d="M169.1,105.5h1.3c0.9,0,1.5,0.2,1.9,0.6c0.4,0.4,0.5,0.8,0.5,1.4c0,0.7-0.3,1.4-0.8,1.9 c-0.6,0.6-1.4,0.9-2.5,0.9h-1.7L169.1,105.5z M169.6,109.5c0.7,0,1.3-0.2,1.8-0.7c0.3-0.3,0.5-0.8,0.5-1.3 c0-0.4-0.1-0.7-0.3-0.9c-0.3-0.3-0.7-0.4-1.3-0.4h-0.6l-0.9,3.3H169.6z"></path> <path id="XMLID_734_" class="st2" d="M174.5,105.5h3.5l-0.2,0.8h-2.7l-0.3,1.3h2.4l-0.2,0.8h-2.4l-0.3,1.3h2.7l-0.2,0.8h-3.6 L174.5,105.5z"></path> <path id="XMLID_723_" class="st2" d="M181.7,106.3l-0.9,0.2l0-0.7l1.4-0.4h0.6l-1.3,4.9h-0.8L181.7,106.3z"></path> <path id="XMLID_701_" class="st2" d="M183.1,109.7l0.5-0.6c0.3,0.3,0.6,0.5,1.1,0.5c0.4,0,0.7-0.1,1-0.4 c0.3-0.3,0.5-0.7,0.6-1.1c-0.2,0.3-0.7,0.5-1.2,0.5c-0.9,0-1.5-0.5-1.5-1.4c0-1,0.9-1.9,2-1.9c0.5,0,0.9,0.2,1.2,0.4 c0.3,0.3,0.5,0.7,0.5,1.4c0,0.9-0.4,1.8-1,2.4c-0.4,0.4-1,0.7-1.7,0.7C184,110.4,183.5,110.1,183.1,109.7z M186.4,106.9 c0-0.2-0.1-0.4-0.2-0.6c-0.2-0.2-0.4-0.2-0.7-0.2c-0.6,0-1.1,0.5-1.1,1c0,0.4,0.3,0.8,0.9,0.8 C186,107.9,186.4,107.4,186.4,106.9z"></path> <path id="XMLID_696_" class="st2" d="M189.2,106.3l-0.9,0.2l0-0.7l1.4-0.4h0.6l-1.3,4.9h-0.8L189.2,106.3z"></path> <path id="XMLID_683_" class="st2" d="M193.7,106.2h-2.4l0.2-0.7h3.4l-0.2,0.6l-3.1,4.2h-1L193.7,106.2z"></path> </g> <g id="XMLID_672_"> <circle id="XMLID_681_" class="st2" cx="106.2" cy="98.5" r="1"></circle> <path id="XMLID_674_" class="st2" d="M206.4,98.2c-1.1-0.3-2.3-0.9-3.1-2.1c-0.4,1.1-1.2,1.7-2,2c-0.5-0.2-1-0.5-1.3-1 c-0.1,0.4-0.4,0.7-0.6,0.9c0,0-0.1,0.1-0.1,0.1h-90.6c-0.2-1.2-1.3-2.1-2.5-2.1c-1.3,0-2.3,0.9-2.5,2.1H13c0,0-0.1-0.1-0.1-0.1 c-0.3-0.2-0.5-0.5-0.6-0.9c-0.3,0.5-0.8,0.8-1.3,1c-0.7-0.3-1.6-0.9-2-2c-0.7,1.2-2,1.8-3.1,2.1c-1.1,0.3-2,0.3-2,0.3 s0.9,0,2,0.3c1.1,0.3,2.3,0.9,3.1,2.1c0.4-1.1,1.2-1.7,2-2c0.5,0.2,1,0.5,1.3,1c0.1-0.3,0.3-0.5,0.4-0.7 c0.1-0.1,0.2-0.2,0.3-0.3h90.6c0.2,1.2,1.3,2.1,2.5,2.1c1.3,0,2.3-0.9,2.5-2.1h90.6c0.1,0.1,0.2,0.2,0.3,0.3 c0.2,0.2,0.3,0.4,0.4,0.7c0.3-0.5,0.8-0.8,1.3-1c0.7,0.3,1.6,0.9,2,2c0.7-1.2,2-1.8,3.1-2.1c1.1-0.3,2-0.3,2-0.3 S207.5,98.5,206.4,98.2z M106.2,100.2c-0.9,0-1.7-0.8-1.7-1.7c0-0.9,0.8-1.7,1.7-1.7c0.9,0,1.7,0.8,1.7,1.7v0 C107.9,99.5,107.1,100.2,106.2,100.2z"></path> </g> </g> <g id="XMLID_632_"> <path id="XMLID_644_" class="st2" d="M210.6,78.9c-0.1,0-0.2,0-0.5-0.5l-0.5-0.6c0.4-0.3,0.5-0.6,0.5-0.8c0-0.7-0.7-0.7-1.2-0.7 c-0.2,0-0.3,0-0.6,0c-0.1,0-0.3,0-0.4,0h-0.1c-0.1,0-0.1,0-0.1,0.1c0,0,0.1,0.1,0.1,0.1c0.2,0,0.3,0,0.3,0.2c0,0.1,0,0.3,0,0.7 V78c0,0.4,0,0.6,0,0.8c0,0.2,0,0.2-0.3,0.2c-0.1,0-0.1,0-0.1,0.1s0.1,0.1,0.1,0.1h0.1c0.1,0,0.3,0,0.4,0c0.1,0,0.4,0,0.4,0h0.1 c0.1,0,0.1,0,0.1-0.1c0-0.1,0-0.1-0.1-0.1c-0.1,0-0.2,0-0.3-0.1c0,0-0.1-0.1-0.1-0.6V78h0.5l0.4,0.5c0.4,0.6,0.6,0.5,1,0.5 C210.7,79.1,210.7,79.1,210.6,78.9C210.7,79,210.7,78.9,210.6,78.9z M209.4,77.7c-0.1,0.1-0.2,0.1-0.3,0.1c-0.2,0-0.3,0-0.4-0.1 v-1.1c0.1-0.1,0.2-0.1,0.2-0.1c0.4,0,0.7,0.3,0.7,0.7C209.6,77.5,209.5,77.6,209.4,77.7z"></path> <path id="XMLID_633_" class="st2" d="M209.1,75.4c-1.5,0-2.5,1-2.5,2.4c0,1.4,1.1,2.4,2.5,2.4c1.5,0,2.5-1.1,2.5-2.4 C211.7,76.4,210.6,75.4,209.1,75.4z M209.1,79.8c-1.2,0-2.1-0.9-2.1-2c0-1.2,0.9-2,2.1-2c1.2,0,2.1,0.8,2.1,2 C211.2,78.9,210.3,79.8,209.1,79.8z"></path> </g> </g> </g> </svg> 